# xmcd
#
# Track frame offsets: 
#        150
#        12648
#        26215
#        40390
#        55100
#        68783
#        83603
#        101885
#        115345
#        129063
#
# Disc length: 1891 seconds
#
# Revision: 4
# Processed by: cddbd v1.5.2PL0 Copyright (c) Steve Scherf et al.
# Submitted via: ExactAudioCopyFreeDBPlugin 1.0
#
DISCID=8207610a
DTITLE=Pearl River - Find out what's happening
DYEAR=1993
DGENRE=Country
TTITLE0=I wanna be in the picture
TTITLE1=Hole where the heart oughta be
TTITLE2=Does she need me
TTITLE3=Find out what's happening
TTITLE4=Cast iron heart
TTITLE5=That ole gravel road
TTITLE6=Fool to fall
TTITLE7=She's already earned her wings
TTITLE8=Good thing going
TTITLE9=Josephine
EXTD=
EXTT0=
EXTT1=
EXTT2=
EXTT3=
EXTT4=
EXTT5=
EXTT6=
EXTT7=
EXTT8=
EXTT9=
PLAYORDER=
